<svg width="512" height="512" viewBox="0 0 512 512" fill="none" xmlns="http://www.w3.org/2000/svg">
<rect width="512" height="512" rx="50" fill="url(#paint0_linear_1982_911)"/>
<path d="M87.587 437.55C84.7897 437.55 82.643 436.802 81.1467 435.305C79.7156 433.809 79 431.63 79 428.768V396.469C79 390.679 81.8298 387.784 87.4894 387.784C92.6286 387.784 95.4258 390.256 95.8812 395.2C97.3124 392.858 99.264 391.004 101.736 389.638C104.273 388.272 107.2 387.589 110.518 387.589C113.771 387.589 116.568 388.305 118.91 389.736C121.317 391.167 123.138 393.379 124.374 396.371C126.001 393.574 128.212 391.427 131.01 389.931C133.807 388.37 136.897 387.589 140.28 387.589C145.874 387.589 150.005 389.281 152.672 392.663C155.405 395.981 156.771 401.185 156.771 408.276V428.768C156.771 431.63 155.99 433.809 154.429 435.305C152.933 436.802 150.786 437.55 147.989 437.55C145.256 437.55 143.142 436.802 141.646 435.305C140.15 433.809 139.402 431.63 139.402 428.768V408.764C139.402 405.967 138.979 403.95 138.133 402.714C137.287 401.478 135.889 400.86 133.937 400.86C131.53 400.86 129.676 401.706 128.375 403.397C127.139 405.088 126.521 407.495 126.521 410.618V428.768C126.521 431.63 125.773 433.809 124.277 435.305C122.781 436.802 120.634 437.55 117.837 437.55C115.039 437.55 112.893 436.802 111.396 435.305C109.9 433.809 109.152 431.63 109.152 428.768V408.764C109.152 405.967 108.729 403.95 107.883 402.714C107.038 401.478 105.639 400.86 103.688 400.86C101.346 400.86 99.5242 401.706 98.2231 403.397C96.9871 405.088 96.3691 407.495 96.3691 410.618V428.768C96.3691 434.622 93.4417 437.55 87.587 437.55Z" fill="white"/>
<path d="M193.006 437.745C187.151 437.745 182.077 436.737 177.784 434.72C173.555 432.638 170.303 429.711 168.026 425.938C165.749 422.165 164.611 417.709 164.611 412.57C164.611 407.691 165.684 403.365 167.831 399.591C170.042 395.818 173.035 392.891 176.808 390.809C180.646 388.663 185.005 387.589 189.884 387.589C194.697 387.589 198.861 388.598 202.374 390.614C205.952 392.631 208.684 395.526 210.57 399.299C212.522 403.007 213.498 407.365 213.498 412.374C213.498 414.911 212.001 416.18 209.009 416.18H181.199C181.784 419.302 183.086 421.547 185.102 422.913C187.119 424.279 189.916 424.962 193.494 424.962C194.86 424.962 196.486 424.799 198.373 424.474C200.259 424.149 202.048 423.628 203.74 422.913C205.821 422.132 207.578 422.132 209.009 422.913C210.44 423.628 211.383 424.767 211.839 426.328C212.359 427.824 212.294 429.386 211.644 431.012C211.058 432.573 209.855 433.777 208.033 434.622C205.756 435.728 203.317 436.509 200.715 436.964C198.178 437.485 195.608 437.745 193.006 437.745ZM190.664 398.811C188.062 398.811 185.915 399.591 184.224 401.153C182.598 402.714 181.557 404.991 181.101 407.983H199.251C199.056 404.926 198.21 402.649 196.714 401.153C195.283 399.591 193.266 398.811 190.664 398.811Z" fill="white"/>
<path d="M239.716 437.745C235.618 437.745 231.975 436.737 228.787 434.72C225.665 432.703 223.193 429.808 221.371 426.035C219.615 422.262 218.736 417.806 218.736 412.667C218.736 407.463 219.615 403.007 221.371 399.299C223.193 395.526 225.665 392.631 228.787 390.614C231.975 388.598 235.618 387.589 239.716 387.589C242.773 387.589 245.571 388.24 248.108 389.541C250.71 390.777 252.694 392.403 254.06 394.42V375.782C254.06 369.927 256.955 367 262.745 367C265.542 367 267.689 367.748 269.185 369.244C270.681 370.741 271.429 372.92 271.429 375.782V428.768C271.429 434.622 268.567 437.55 262.842 437.55C257.703 437.55 254.873 435.11 254.353 430.231C253.052 432.508 251.068 434.33 248.401 435.696C245.798 437.062 242.904 437.745 239.716 437.745ZM245.278 424.962C247.88 424.962 250.027 423.986 251.718 422.035C253.41 420.083 254.255 416.961 254.255 412.667C254.255 408.309 253.41 405.186 251.718 403.299C250.027 401.348 247.88 400.372 245.278 400.372C242.611 400.372 240.432 401.348 238.74 403.299C237.049 405.186 236.203 408.309 236.203 412.667C236.203 416.961 237.049 420.083 238.74 422.035C240.432 423.986 242.611 424.962 245.278 424.962Z" fill="white"/>
<path d="M299.446 437.745C293.201 437.745 288.582 436.054 285.59 432.671C282.662 429.223 281.199 423.986 281.199 416.961V396.469C281.199 390.679 284.093 387.784 289.883 387.784C292.68 387.784 294.827 388.532 296.323 390.029C297.82 391.525 298.568 393.672 298.568 396.469V417.448C298.568 422.132 300.584 424.474 304.618 424.474C306.96 424.474 308.879 423.628 310.375 421.937C311.871 420.246 312.619 418.001 312.619 415.204V396.469C312.619 390.679 315.514 387.784 321.304 387.784C324.101 387.784 326.248 388.532 327.744 390.029C329.24 391.525 329.988 393.672 329.988 396.469V428.768C329.988 434.622 327.191 437.55 321.596 437.55C316.587 437.55 313.758 435.208 313.107 430.524C309.984 435.338 305.431 437.745 299.446 437.745Z" fill="white"/>
<path d="M345.365 436.672C343.023 436.672 341.267 435.923 340.096 434.427C338.925 432.931 338.405 431.142 338.535 429.06C338.73 426.914 339.673 424.93 341.365 423.108L360.49 401.445H344.682C340.389 401.445 338.242 399.299 338.242 395.005C338.242 390.777 340.389 388.663 344.682 388.663H372.297C374.899 388.663 376.851 389.411 378.152 390.907C379.453 392.403 380.039 394.192 379.908 396.274C379.778 398.355 378.868 400.307 377.176 402.129L357.953 423.889H374.737C379.095 423.889 381.274 426.003 381.274 430.231C381.274 434.525 379.095 436.672 374.737 436.672H345.365Z" fill="white"/>
<path d="M403.856 437.745C400.148 437.745 396.863 437.062 394.001 435.696C391.204 434.33 388.992 432.476 387.366 430.134C385.804 427.727 385.024 424.995 385.024 421.937C385.024 418.489 385.934 415.757 387.756 413.74C389.577 411.659 392.505 410.195 396.538 409.349C400.571 408.439 405.938 407.983 412.639 407.983H416.347V406.617C416.347 404.275 415.729 402.616 414.493 401.641C413.322 400.665 411.272 400.177 408.345 400.177C406.719 400.177 404.93 400.372 402.978 400.762C401.092 401.088 398.945 401.706 396.538 402.616C394.391 403.397 392.602 403.365 391.171 402.519C389.74 401.673 388.797 400.47 388.341 398.908C387.951 397.282 388.114 395.688 388.829 394.127C389.61 392.501 391.074 391.297 393.22 390.517C396.343 389.411 399.205 388.663 401.807 388.272C404.474 387.817 406.914 387.589 409.126 387.589C417.127 387.589 423.047 389.313 426.885 392.761C430.788 396.209 432.74 401.641 432.74 409.057V428.768C432.74 434.622 430.073 437.55 424.738 437.55C419.664 437.55 416.965 434.948 416.639 429.743C415.729 432.215 414.167 434.167 411.956 435.598C409.744 437.029 407.044 437.745 403.856 437.745ZM407.76 426.426C410.167 426.426 412.183 425.645 413.81 424.084C415.501 422.523 416.347 420.473 416.347 417.936V416.18H412.639C408.8 416.18 405.971 416.603 404.149 417.448C402.393 418.229 401.515 419.498 401.515 421.254C401.515 422.75 402.035 423.986 403.076 424.962C404.182 425.938 405.743 426.426 407.76 426.426Z" fill="white"/>
<path d="M311.125 256.125H198.709L171.245 105.122C170.924 103.313 169.981 101.674 168.579 100.488C167.177 99.3013 165.404 98.6423 163.567 98.6248H145.75" stroke="white" stroke-width="15.75" stroke-linecap="round" stroke-linejoin="round"/>
<path d="M208.75 295.5C219.623 295.5 228.438 286.686 228.438 275.812C228.438 264.939 219.623 256.125 208.75 256.125C197.877 256.125 189.062 264.939 189.062 275.812C189.062 286.686 197.877 295.5 208.75 295.5Z" stroke="white" stroke-width="15.75" stroke-linecap="round" stroke-linejoin="round"/>
<path d="M311.125 295.5C321.998 295.5 330.812 286.686 330.812 275.812C330.812 264.939 321.998 256.125 311.125 256.125C300.252 256.125 291.438 264.939 291.438 275.812C291.438 286.686 300.252 295.5 311.125 295.5Z" stroke="white" stroke-width="15.75" stroke-linecap="round" stroke-linejoin="round"/>
<path d="M191.523 216.75H315.161C318.842 216.761 322.41 215.475 325.236 213.116C328.063 210.758 329.967 207.478 330.616 203.855L342.625 138H177.25" stroke="white" stroke-width="15.75" stroke-linecap="round" stroke-linejoin="round"/>
<defs>
<linearGradient id="paint0_linear_1982_911" x1="15" y1="15" x2="557" y2="631" gradientUnits="userSpaceOnUse">
<stop stop-color="#EA1D2C"/>
<stop offset="1" stop-color="#FF2424"/>
</linearGradient>
</defs>
</svg>
