<svg width="88" height="32" viewBox="0 0 88 32" fill="none" xmlns="http://www.w3.org/2000/svg">
<path d="M2.17596 31.752C1.48796 31.752 0.959965 31.568 0.591965 31.2C0.239965 30.832 0.0639648 30.296 0.0639648 29.592V21.648C0.0639648 20.224 0.759965 19.512 2.15196 19.512C3.41597 19.512 4.10397 20.12 4.21597 21.336C4.56797 20.76 5.04797 20.304 5.65596 19.968C6.27996 19.632 6.99997 19.464 7.81597 19.464C8.61596 19.464 9.30396 19.64 9.87996 19.992C10.472 20.344 10.92 20.888 11.224 21.624C11.624 20.936 12.168 20.408 12.856 20.04C13.544 19.656 14.304 19.464 15.136 19.464C16.512 19.464 17.528 19.88 18.184 20.712C18.856 21.528 19.192 22.808 19.192 24.552V29.592C19.192 30.296 19 30.832 18.616 31.2C18.248 31.568 17.72 31.752 17.032 31.752C16.36 31.752 15.84 31.568 15.472 31.2C15.104 30.832 14.92 30.296 14.92 29.592V24.672C14.92 23.984 14.816 23.488 14.608 23.184C14.4 22.88 14.056 22.728 13.576 22.728C12.984 22.728 12.528 22.936 12.208 23.352C11.904 23.768 11.752 24.36 11.752 25.128V29.592C11.752 30.296 11.568 30.832 11.2 31.2C10.832 31.568 10.304 31.752 9.61596 31.752C8.92797 31.752 8.39997 31.568 8.03196 31.2C7.66396 30.832 7.47996 30.296 7.47996 29.592V24.672C7.47996 23.984 7.37597 23.488 7.16797 23.184C6.95997 22.88 6.61596 22.728 6.13596 22.728C5.55997 22.728 5.11197 22.936 4.79197 23.352C4.48796 23.768 4.33597 24.36 4.33597 25.128V29.592C4.33597 31.032 3.61596 31.752 2.17596 31.752Z" fill="#EA1D2C"/>
<path d="M28.1042 31.8C26.6642 31.8 25.4162 31.552 24.3602 31.056C23.3202 30.544 22.5202 29.824 21.9602 28.896C21.4002 27.968 21.1202 26.872 21.1202 25.608C21.1202 24.408 21.3842 23.344 21.9122 22.416C22.4562 21.488 23.1922 20.768 24.1202 20.256C25.0642 19.728 26.1362 19.464 27.3362 19.464C28.5202 19.464 29.5442 19.712 30.4082 20.208C31.2882 20.704 31.9602 21.416 32.4242 22.344C32.9042 23.256 33.1442 24.328 33.1442 25.56C33.1442 26.184 32.7762 26.496 32.0402 26.496H25.2002C25.3442 27.264 25.6642 27.816 26.1602 28.152C26.6562 28.488 27.3442 28.656 28.2242 28.656C28.5602 28.656 28.9602 28.616 29.4242 28.536C29.8882 28.456 30.3282 28.328 30.7442 28.152C31.2562 27.96 31.6882 27.96 32.0402 28.152C32.3922 28.328 32.6242 28.608 32.7362 28.992C32.8642 29.36 32.8482 29.744 32.6882 30.144C32.5442 30.528 32.2482 30.824 31.8002 31.032C31.2402 31.304 30.6402 31.496 30.0002 31.608C29.3762 31.736 28.7442 31.8 28.1042 31.8ZM27.5282 22.224C26.8882 22.224 26.3602 22.416 25.9442 22.8C25.5442 23.184 25.2882 23.744 25.1762 24.48H29.6402C29.5922 23.728 29.3842 23.168 29.0162 22.8C28.6642 22.416 28.1682 22.224 27.5282 22.224Z" fill="#EA1D2C"/>
<path d="M39.5927 31.8C38.5847 31.8 37.6887 31.552 36.9047 31.056C36.1367 30.56 35.5287 29.848 35.0807 28.92C34.6487 27.992 34.4327 26.896 34.4327 25.632C34.4327 24.352 34.6487 23.256 35.0807 22.344C35.5287 21.416 36.1367 20.704 36.9047 20.208C37.6887 19.712 38.5847 19.464 39.5927 19.464C40.3447 19.464 41.0327 19.624 41.6567 19.944C42.2967 20.248 42.7847 20.648 43.1207 21.144V16.56C43.1207 15.12 43.8327 14.4 45.2567 14.4C45.9447 14.4 46.4727 14.584 46.8407 14.952C47.2087 15.32 47.3927 15.856 47.3927 16.56V29.592C47.3927 31.032 46.6887 31.752 45.2807 31.752C44.0167 31.752 43.3207 31.152 43.1927 29.952C42.8727 30.512 42.3847 30.96 41.7287 31.296C41.0887 31.632 40.3767 31.8 39.5927 31.8ZM40.9607 28.656C41.6007 28.656 42.1287 28.416 42.5447 27.936C42.9607 27.456 43.1687 26.688 43.1687 25.632C43.1687 24.56 42.9607 23.792 42.5447 23.328C42.1287 22.848 41.6007 22.608 40.9607 22.608C40.3047 22.608 39.7687 22.848 39.3527 23.328C38.9367 23.792 38.7287 24.56 38.7287 25.632C38.7287 26.688 38.9367 27.456 39.3527 27.936C39.7687 28.416 40.3047 28.656 40.9607 28.656Z" fill="#EA1D2C"/>
<path d="M54.2835 31.8C52.7475 31.8 51.6115 31.384 50.8755 30.552C50.1555 29.704 49.7955 28.416 49.7955 26.688V21.648C49.7955 20.224 50.5075 19.512 51.9315 19.512C52.6195 19.512 53.1475 19.696 53.5155 20.064C53.8835 20.432 54.0675 20.96 54.0675 21.648V26.808C54.0675 27.96 54.5635 28.536 55.5555 28.536C56.1315 28.536 56.6035 28.328 56.9715 27.912C57.3395 27.496 57.5235 26.944 57.5235 26.256V21.648C57.5235 20.224 58.2355 19.512 59.6595 19.512C60.3475 19.512 60.8755 19.696 61.2435 20.064C61.6115 20.432 61.7955 20.96 61.7955 21.648V29.592C61.7955 31.032 61.1075 31.752 59.7315 31.752C58.4995 31.752 57.8035 31.176 57.6435 30.024C56.8755 31.208 55.7555 31.8 54.2835 31.8Z" fill="#EA1D2C"/>
<path d="M65.5776 31.536C65.0016 31.536 64.5696 31.352 64.2816 30.984C63.9936 30.616 63.8656 30.176 63.8976 29.664C63.9456 29.136 64.1776 28.648 64.5936 28.2L69.2976 22.872H65.4096C64.3536 22.872 63.8256 22.344 63.8256 21.288C63.8256 20.248 64.3536 19.728 65.4096 19.728H72.2016C72.8416 19.728 73.3216 19.912 73.6416 20.28C73.9616 20.648 74.1056 21.088 74.0736 21.6C74.0416 22.112 73.8176 22.592 73.4016 23.04L68.6736 28.392H72.8016C73.8736 28.392 74.4096 28.912 74.4096 29.952C74.4096 31.008 73.8736 31.536 72.8016 31.536H65.5776Z" fill="#EA1D2C"/>
<path d="M79.9637 31.8C79.0517 31.8 78.2437 31.632 77.5397 31.296C76.8517 30.96 76.3077 30.504 75.9077 29.928C75.5237 29.336 75.3317 28.664 75.3317 27.912C75.3317 27.064 75.5557 26.392 76.0037 25.896C76.4517 25.384 77.1717 25.024 78.1637 24.816C79.1557 24.592 80.4757 24.48 82.1237 24.48H83.0357V24.144C83.0357 23.568 82.8837 23.16 82.5797 22.92C82.2917 22.68 81.7877 22.56 81.0677 22.56C80.6677 22.56 80.2277 22.608 79.7477 22.704C79.2837 22.784 78.7557 22.936 78.1637 23.16C77.6357 23.352 77.1957 23.344 76.8437 23.136C76.4917 22.928 76.2597 22.632 76.1477 22.248C76.0517 21.848 76.0917 21.456 76.2677 21.072C76.4597 20.672 76.8197 20.376 77.3477 20.184C78.1157 19.912 78.8197 19.728 79.4597 19.632C80.1157 19.52 80.7157 19.464 81.2597 19.464C83.2277 19.464 84.6837 19.888 85.6277 20.736C86.5877 21.584 87.0677 22.92 87.0677 24.744V29.592C87.0677 31.032 86.4117 31.752 85.0997 31.752C83.8517 31.752 83.1877 31.112 83.1077 29.832C82.8837 30.44 82.4997 30.92 81.9557 31.272C81.4117 31.624 80.7477 31.8 79.9637 31.8ZM80.9237 29.016C81.5157 29.016 82.0117 28.824 82.4117 28.44C82.8277 28.056 83.0357 27.552 83.0357 26.928V26.496H82.1237C81.1797 26.496 80.4837 26.6 80.0357 26.808C79.6037 27 79.3877 27.312 79.3877 27.744C79.3877 28.112 79.5157 28.416 79.7717 28.656C80.0437 28.896 80.4277 29.016 80.9237 29.016Z" fill="#EA1D2C"/>
<path d="M1.088 11.536C0.362667 11.536 0 11.1733 0 10.448V1.344C0 0.618666 0.362667 0.256 1.088 0.256H4.192C6.08 0.256 7.536 0.741333 8.56 1.712C9.59467 2.68267 10.112 4.07467 10.112 5.888C10.112 7.69067 9.59467 9.08267 8.56 10.064C7.536 11.0453 6.08 11.536 4.192 11.536H1.088ZM2.048 9.84H4.064C6.66667 9.84 7.968 8.52267 7.968 5.888C7.968 3.264 6.66667 1.952 4.064 1.952H2.048V9.84Z" fill="#2B2B43"/>
<path d="M15.8515 11.696C14.9662 11.696 14.2035 11.5307 13.5635 11.2C12.9235 10.8693 12.4275 10.4 12.0755 9.792C11.7342 9.184 11.5635 8.464 11.5635 7.632C11.5635 6.82133 11.7288 6.112 12.0595 5.504C12.4008 4.896 12.8648 4.42133 13.4515 4.08C14.0488 3.728 14.7262 3.552 15.4835 3.552C16.5928 3.552 17.4675 3.904 18.1075 4.608C18.7582 5.312 19.0835 6.272 19.0835 7.488C19.0835 7.88267 18.8275 8.08 18.3155 8.08H13.4835C13.6328 9.47733 14.4328 10.176 15.8835 10.176C16.1608 10.176 16.4702 10.144 16.8115 10.08C17.1635 10.0053 17.4942 9.88267 17.8035 9.712C18.0808 9.552 18.3155 9.504 18.5075 9.568C18.6995 9.62133 18.8328 9.73333 18.9075 9.904C18.9928 10.0747 19.0035 10.2667 18.9395 10.48C18.8862 10.6827 18.7368 10.8587 18.4915 11.008C18.1182 11.2427 17.6862 11.4187 17.1955 11.536C16.7155 11.6427 16.2675 11.696 15.8515 11.696ZM15.5635 4.912C14.9768 4.912 14.5022 5.09333 14.1395 5.456C13.7768 5.81867 13.5582 6.30933 13.4835 6.928H17.4195C17.3768 6.27733 17.1955 5.78133 16.8755 5.44C16.5662 5.088 16.1288 4.912 15.5635 4.912Z" fill="#2B2B43"/>
<path d="M23.3394 11.696C21.558 11.696 20.6674 10.6987 20.6674 8.704V1.136C20.6674 0.463999 20.998 0.127999 21.6594 0.127999C22.3314 0.127999 22.6674 0.463999 22.6674 1.136V8.608C22.6674 9.568 23.0674 10.048 23.8674 10.048C23.9527 10.048 24.0327 10.048 24.1074 10.048C24.182 10.0373 24.2567 10.0267 24.3314 10.016C24.4807 9.99467 24.582 10.0373 24.6354 10.144C24.6887 10.24 24.7154 10.4427 24.7154 10.752C24.7154 11.0187 24.662 11.2267 24.5554 11.376C24.4487 11.5253 24.2727 11.616 24.0274 11.648C23.8034 11.68 23.574 11.696 23.3394 11.696Z" fill="#2B2B43"/>
<path d="M26.7687 2.112C26.3954 2.112 26.1021 2.02133 25.8888 1.84C25.6861 1.648 25.5847 1.38667 25.5847 1.056C25.5847 0.714666 25.6861 0.453333 25.8888 0.271999C26.1021 0.0906665 26.3954 0 26.7687 0C27.5581 0 27.9527 0.352 27.9527 1.056C27.9527 1.76 27.5581 2.112 26.7687 2.112ZM26.7687 11.648C26.4487 11.648 26.2034 11.552 26.0327 11.36C25.8621 11.168 25.7768 10.9013 25.7768 10.56V4.688C25.7768 3.96267 26.1074 3.6 26.7687 3.6C27.4408 3.6 27.7768 3.96267 27.7768 4.688V10.56C27.7768 10.9013 27.6914 11.168 27.5208 11.36C27.3501 11.552 27.0994 11.648 26.7687 11.648Z" fill="#2B2B43"/>
<path d="M33.0229 11.664C32.4895 11.664 32.0949 11.3813 31.8389 10.816L29.2949 4.912C29.1455 4.56 29.1402 4.25067 29.2789 3.984C29.4282 3.71733 29.7215 3.584 30.1589 3.584C30.4042 3.584 30.6015 3.64267 30.7509 3.76C30.9002 3.86667 31.0335 4.07467 31.1509 4.384L33.0709 9.184L35.0549 4.368C35.1722 4.06933 35.3055 3.86667 35.4549 3.76C35.6149 3.64267 35.8282 3.584 36.0949 3.584C36.4362 3.584 36.6762 3.71733 36.8149 3.984C36.9535 4.25067 36.9482 4.55467 36.7989 4.896L34.2069 10.816C33.9722 11.3813 33.5775 11.664 33.0229 11.664Z" fill="#2B2B43"/>
<path d="M41.9921 11.696C41.1068 11.696 40.3441 11.5307 39.7041 11.2C39.0641 10.8693 38.5681 10.4 38.2161 9.792C37.8748 9.184 37.7041 8.464 37.7041 7.632C37.7041 6.82133 37.8695 6.112 38.2001 5.504C38.5415 4.896 39.0055 4.42133 39.5921 4.08C40.1895 3.728 40.8668 3.552 41.6241 3.552C42.7335 3.552 43.6081 3.904 44.2481 4.608C44.8988 5.312 45.2241 6.272 45.2241 7.488C45.2241 7.88267 44.9681 8.08 44.4561 8.08H39.6241C39.7735 9.47733 40.5735 10.176 42.0241 10.176C42.3015 10.176 42.6108 10.144 42.9521 10.08C43.3041 10.0053 43.6348 9.88267 43.9441 9.712C44.2215 9.552 44.4561 9.504 44.6481 9.568C44.8401 9.62133 44.9735 9.73333 45.0481 9.904C45.1335 10.0747 45.1441 10.2667 45.0801 10.48C45.0268 10.6827 44.8775 10.8587 44.6321 11.008C44.2588 11.2427 43.8268 11.4187 43.3361 11.536C42.8561 11.6427 42.4081 11.696 41.9921 11.696ZM41.7041 4.912C41.1175 4.912 40.6428 5.09333 40.2801 5.456C39.9175 5.81867 39.6988 6.30933 39.6241 6.928H43.5601C43.5175 6.27733 43.3361 5.78133 43.0161 5.44C42.7068 5.088 42.2695 4.912 41.7041 4.912Z" fill="#2B2B43"/>
<path d="M47.832 11.664C47.1493 11.664 46.808 11.3227 46.808 10.64V4.592C46.808 3.92 47.1333 3.584 47.784 3.584C48.4347 3.584 48.76 3.92 48.76 4.592V5.088C49.144 4.17067 49.9653 3.65867 51.224 3.552C51.6827 3.49867 51.9387 3.76 51.992 4.336C52.0453 4.90133 51.768 5.216 51.16 5.28L50.808 5.312C49.496 5.44 48.84 6.112 48.84 7.328V10.64C48.84 11.3227 48.504 11.664 47.832 11.664Z" fill="#2B2B43"/>
<path d="M55.542 14.544C55.1793 14.544 54.9287 14.4107 54.79 14.144C54.6513 13.8773 54.6567 13.5733 54.806 13.232L55.718 11.216L52.982 4.912C52.8327 4.56 52.8327 4.25067 52.982 3.984C53.1313 3.71733 53.4247 3.584 53.862 3.584C54.1073 3.584 54.3047 3.64267 54.454 3.76C54.6033 3.86667 54.7367 4.07467 54.854 4.384L56.774 9.184L58.742 4.368C58.8593 4.06933 58.998 3.86667 59.158 3.76C59.318 3.64267 59.5313 3.584 59.798 3.584C60.1393 3.584 60.3793 3.71733 60.518 3.984C60.6567 4.25067 60.6513 4.55467 60.502 4.896L56.614 13.776C56.4753 14.0747 56.326 14.2773 56.166 14.384C56.006 14.4907 55.798 14.544 55.542 14.544Z" fill="#2B2B43"/>
</svg>
